<?xml version="1.0" encoding="UTF-8"?>
<svg width="305px" height="279px" viewBox="0 0 305 279" version="1.1" xmlns="http://www.w3.org/2000/svg" xmlns:xlink="http://www.w3.org/1999/xlink">
    <title>vue-logo</title>
    <g id="atoms" stroke="none" stroke-width="1" fill="none" fill-rule="evenodd">
        <g id="vue-logo" fill-rule="nonzero">
            <polygon id="path14-copy-5" fill="#435466" transform="translate(151.879997, 165.344664) scale(-1, -1) rotate(-180.000000) translate(-151.879997, -165.344664) " points="182.105329 278.689328 151.879997 226.337329 121.654664 278.689328 21 278.689328 151.879997 52 282.759993 278.689328"></polygon>
            <polygon id="path18-copy-7" fill="#BABABA" transform="translate(151.527998, 211.006665) scale(-1, -1) rotate(-180.000000) translate(-151.527998, -211.006665) " points="181.753331 279.01333 151.527998 226.661331 121.302665 279.01333 73 279.01333 151.527998 143 230.055996 279.01333"></polygon>
            <polygon id="path14-copy" fill="#4DBA87" transform="translate(151.879997, 113.344664) scale(-1, 1) rotate(-180.000000) translate(-151.879997, -113.344664) " points="182.105329 226.689328 151.879997 174.337329 121.654664 226.689328 21 226.689328 151.879997 0 282.759993 226.689328"></polygon>
            <polygon id="path18-copy" fill="#435466" transform="translate(151.527998, 68.006665) scale(-1, 1) rotate(-180.000000) translate(-151.527998, -68.006665) " points="181.753331 136.01333 151.527998 83.6613312 121.302665 136.01333 73 136.01333 151.527998 6.03961325e-14 230.055996 136.01333"></polygon>
            <polygon id="path18-copy-8" fill="#435466" transform="translate(151.527998, 68.006665) scale(-1, 1) rotate(-180.000000) translate(-151.527998, -68.006665) " points="181.753331 136.01333 151.527998 83.6613312 121.302665 136.01333 73 136.01333 151.527998 0 230.055996 136.01333"></polygon>
            <path d="M267.709748,127.210038 C254.642172,138.33877 238.364271,149.714617 219.584653,160.859414 C205.774048,169.055342 190.893605,176.89878 175.338214,184.152377 C166.09087,188.464485 156.8311,192.46277 147.645992,196.116008 C142.881687,198.010939 138.142839,199.810884 133.442997,201.511427 C103.837378,212.22363 76.2497951,218.820005 54.2705692,220.461136 C27.916695,222.42891 9.53152846,217.428068 2.93835805,203.288969 C-0.764478643,195.34821 0.254647682,186.20688 5.03739293,176.554073 C11.2700468,163.97498 24.3127848,149.767521 42.5976508,135.181971 L57.7463539,146.185766 C39.2788859,160.375494 26.4447636,173.891923 21.1661556,184.545507 C18.5960796,189.73258 18.1873394,193.398886 19.2518982,195.68184 C21.6318894,200.785748 33.3499708,203.973114 52.9302876,202.511104 C73.1102664,201.004318 99.1464279,194.778898 127.318634,184.585348 C131.840684,182.949135 136.403532,181.216039 140.993631,179.390396 C149.855648,175.865662 158.797063,172.00484 167.731086,167.838837 C182.751276,160.834807 197.104606,153.26921 210.398369,145.380003 C227.899698,134.993808 243.224151,124.243131 255.424906,113.905716 C255.146692,112.648185 255,111.341223 255,110 C255,100.058875 263.058875,92 273,92 C282.941125,92 291,100.058875 291,110 C291,119.941125 282.941125,128 273,128 C271.158949,128 269.382454,127.723602 267.709748,127.210038 Z M295.82275,96.2962236 C293.066775,90.8204093 287.928338,86.7496453 281.768533,85.4450261 C284.74838,80.3734112 285.512836,76.2615154 284.500646,71.9943179 C282.696215,64.3871892 266.551786,60.6048 248.426224,64.1354241 L258.549023,46.6025516 C282.702596,45.4406266 294.557704,50.9701214 300.814186,64.3871892 C305.101713,73.5818215 303.07098,84.4657619 295.822751,96.2962214 Z M62.1482095,120.964673 C69.0865125,116.45203 78.4319244,110.662202 83.2148702,107.653287 L92.1408373,123.12955 C88.8324498,125.210831 83.3181426,128.678971 78.0453994,132.065642 L62.1482095,120.964673 Z" id="Combined-Shape" fill="#BABABA"></path>
            <path d="M52.910858,116.449766 C55.086382,115.516679 57.4828526,115 60,115 C69.9411255,115 78,123.058875 78,133 C78,142.941125 69.9411255,151 60,151 C50.0588745,151 42,142.941125 42,133 C42,132.318092 42.0379189,131.64504 42.1117631,130.982838 C11.3784486,106.056322 -3.78910171,82.0904969 4.46608624,64.3871892 C10.7225677,50.9701214 20.8749577,45.8556402 45.0285309,47.0175653 L55.062144,64.3871892 C31.8328207,61.2772833 22.9844379,67.2660844 20.7796264,71.9943179 C18.5714069,76.7298599 22.8169756,86.7150238 34.7906449,99.6521392 C39.7928444,105.056834 45.8862554,110.699858 52.910858,116.449766 Z M85.7752215,139.820337 C88.7386955,141.68214 91.7760199,143.536811 94.8819029,145.380003 C108.175666,153.26921 122.528996,160.834807 137.549186,167.838837 C146.483209,172.00484 155.424624,175.865662 164.286641,179.390396 C168.87674,181.216039 173.439588,182.949135 177.961638,184.585348 C206.133844,194.778898 232.170006,201.004318 252.349984,202.511104 C271.930301,203.973114 283.648383,200.785748 286.028374,195.68184 C287.092933,193.398886 286.684192,189.73258 284.114116,184.545507 C278.807463,173.83532 265.864797,160.231787 247.239087,145.959538 L262.393458,134.951627 C280.829997,149.617914 293.97742,163.908769 300.242879,176.554073 C305.025624,186.20688 306.044751,195.34821 302.341914,203.288969 C295.748743,217.428068 277.363577,222.42891 251.009703,220.461136 C229.030477,218.820005 201.442894,212.22363 171.837275,201.511427 C167.137433,199.810884 162.398585,198.010939 157.63428,196.116008 C148.449172,192.46277 139.189402,188.464485 129.942057,184.152377 C114.386667,176.89878 99.5062238,169.055342 85.6956187,160.859414 C82.0152483,158.675292 78.4309611,156.482296 74.9480908,154.284025 C80.4137876,151.329518 84.4546462,146.076472 85.7752215,139.820337 Z M226.405596,132.221364 C220.706872,128.960568 214.749833,125.631793 211.454374,123.558645 L220.405217,108.08857 C225.138768,111.066411 235.218257,116.538023 242.612507,120.904117 L226.405596,132.221364 Z" id="Combined-Shape" fill="#DFDFDF"></path>
            <path d="M152.909058,225.089134 L152.848999,224.985429 L152.090946,226.294384 L102,139.801577 L152.848999,52 L203,138.596334 L152.909058,225.089134 Z" id="Combined-Shape-Copy-3" fill-opacity="0.210000008" fill="#4DBA87" style="mix-blend-mode: multiply;"></path>
        </g>
    </g>
</svg>